<svg version="1.2" xmlns="http://www.w3.org/2000/svg" viewBox="0 0 1000 500" width="1000" height="500">
	<title>ADZ logo-svg</title>
	<defs>
		<clipPath clipPathUnits="userSpaceOnUse" id="cp1">
			<path d="m268.32 234.16c31.27-10.78 36.59-38.85 32.6-64.67 0-0.93 0.8-1.6 1.6-1.33 29.94 14.64 63.6 46.57 63.6 94.48 0 36.73-28.48 69.19-69.86 69.19-36.71 1.67-67.82-26.73-69.49-63.44-1.11-24.31 11.15-47.29 31.96-59.91 0.8-0.53 1.86 0 1.86 0.93 0.4 4.92 1.73 17.3 7.19 24.75 0 0 0.53 0 0.54 0z"/>
		</clipPath>
	</defs>
	<style>
		.s0 { fill: #ffffff } 
	</style>
	<g clip-path="url(#cp1)">
		<path fill-rule="evenodd" class="s0" d="m268.3 234.2c31.3-10.8 36.6-38.9 32.6-64.7 0-0.9 0.8-1.6 1.6-1.3 30 14.6 63.6 46.5 63.6 94.4 0 36.8-28.5 69.2-69.8 69.2-36.7 1.7-67.9-26.7-69.5-63.4-1.1-24.3 11.1-47.3 31.9-59.9 0.8-0.6 1.9 0 1.9 0.9 0.4 4.9 1.7 17.3 7.2 24.8 0 0 0.5 0 0.5 0z"/>
		<path fill-rule="evenodd" class="s0" d="m271.2 278c0 0 35.4-3.9 49.2-41 0 0 2.2-5.5 4.1-4.9 1.9 0.5 14.4 32.5-2.1 51-16.5 18.4-40.7 15.4-50.3 8.8 0 0-13.7-9.2-0.9-14z"/>
	</g>
	<path fill-rule="evenodd" class="s0" d="m614.7 175.3h34.2v152.9h-33.8v-11.4c-1.3 0.6-2 0.7-2.4 1.1-21.9 21.1-67.1 18.3-84.4-18.8-11.3-24.3-6.5-55.1 11-72.8 17.9-18 52.5-22.1 75.4-0.9 0 0.1 0-50.1 0-50.1zm0.2 95.9c0.1-18.4-11.3-30.4-29.1-30.7-17.2-0.2-29.1 12.1-29.2 30.1 0 18.5 11.2 30.6 28.5 30.7 17.7 0.1 29.7-12.1 29.8-30.1z"/>
	<path fill-rule="evenodd" class="s0" d="m504.5 251.8c1.3 25.3 0.4 50.6 0.4 76.3h-33.7v-13.7c-16.7 18.9-43.3 19.5-58.2 12.3-13.6-6.6-21.2-20.1-19.9-35.6 1.4-15.1 10.2-25.7 25-30 15-4.3 30.2-2.3 45.4-1.9 2.3 0 4.6 0.2 6.9 0.4 0.5-10.6-4.9-17.1-15.5-19.3-14.1-2.9-27.7-0.1-41.2 3.6-1.4 0.3-2.7 0.8-4.9 1.5-1-8.9-2-17.5-2.8-26-0.1-0.9 1-2.5 1.9-2.7 23.8-6.1 47.7-9.6 71.4 0 15.6 6.3 24.5 19 25.2 35.1zm-37.9 26.4c-3.7-0.1-7.3-0.5-10.9-0.8q0-0.4-0.1-0.9c-7.1 1-14.4 1.6-21.3 3.2-5.5 1.3-8.2 5.8-8.5 11.4-0.2 5 3.2 9.5 8.7 11.2 3.1 0.9 6.3 1.5 9.6 1.6 14.5 0.7 24.4-7.3 26.6-20.8 0.6-3.8-0.7-4.8-4.1-4.9z"/>
	<path class="s0" d="m713.3 299.7c2-2.3 3.2-3.6 4.4-5 17.2-18.8 34.4-37.6 51.6-56.5 1.4-1.6 3.1-3.5 3.2-5.4 0.4-6 0.1-12.1 0.1-18.3h-102.9v28.2h56.8c-2.3 2.5-3.5 4-4.8 5.5-15.9 17.6-31.3 35.7-48 52.5-8.6 8.7-5.6 17.9-6.2 27.5h105.8v-28.5c0 0-60 0-60 0z"/>
</svg>